<?xml version="1.0" encoding="UTF-8" standalone="no"?>
<!DOCTYPE svg PUBLIC "-//W3C//DTD SVG 1.1//EN" "http://www.w3.org/Graphics/SVG/1.1/DTD/svg11.dtd">
<svg xmlns="http://www.w3.org/2000/svg" version="1.1" viewBox="0.00 0.00 990.00 330.00">
<path fill="#115a9f" d="
  M 171.07 0.00
  L 181.44 0.00
  L 169.16 33.74
  A 2.38 2.38 0.0 0 1 164.70 33.76
  L 152.72 1.78
  A 0.54 0.53 78.3 0 1 153.19 1.06
  L 171.07 0.00
  Z"
/>
<path fill="#115a9f" d="
  M 184.60 0.00
  L 187.06 0.00
  Q 188.04 0.45 189.38 0.19
  Q 189.82 0.10 190.22 0.31
  L 215.66 13.63
  Q 216.18 13.90 216.10 14.48
  L 215.61 18.25
  A 1.15 1.14 80.7 0 1 214.98 19.13
  L 175.01 39.06
  Q 174.46 39.33 174.03 38.90
  L 171.78 36.66
  Q 171.35 36.22 171.56 35.65
  L 184.60 0.00
  Z"
/>
<path fill="#115a9f" d="
  M 217.19 11.26
  L 197.84 1.13
  A 0.29 0.29 0.0 0 1 198.00 0.58
  Q 214.17 1.65 230.14 4.39
  Q 230.76 4.49 230.48 5.05
  L 228.75 8.50
  A 0.66 0.66 0.0 0 1 228.00 8.84
  Q 222.38 7.37 218.15 11.15
  Q 217.71 11.53 217.19 11.26
  Z"
/>
<path fill="#115a9f" d="
  M 130.21 4.04
  L 149.03 1.40
  A 0.67 0.67 0.0 0 1 149.75 1.83
  L 162.24 35.29
  A 0.67 0.67 0.0 0 1 161.14 36.00
  L 129.83 5.18
  A 0.67 0.67 0.0 0 1 130.21 4.04
  Z"
/>
<path fill="#115a9f" d="
  M 275.96 17.26
  L 234.49 16.48
  A 0.64 0.64 0.0 0 1 233.87 15.95
  Q 233.32 13.01 231.18 10.84
  Q 230.81 10.46 231.06 9.98
  L 233.45 5.55
  Q 233.74 5.01 234.34 5.12
  Q 255.78 8.90 276.06 16.75
  A 0.26 0.26 0.0 0 1 275.96 17.26
  Z"
/>
<path fill="#115a9f" d="
  M 126.08 5.28
  L 158.75 37.69
  A 0.50 0.50 0.0 0 1 158.86 38.22
  L 156.98 43.19
  A 0.50 0.50 0.0 0 1 156.48 43.51
  L 95.64 40.00
  A 0.50 0.50 0.0 0 1 95.22 39.71
  L 93.79 36.56
  A 0.50 0.50 0.0 0 1 93.89 35.99
  L 125.38 5.27
  A 0.50 0.50 0.0 0 1 126.08 5.28
  Z"
/>
<path fill="#115a9f" d="
  M 96.76 12.36
  L 119.37 6.15
  A 0.46 0.46 0.0 0 1 119.81 6.92
  L 91.59 34.32
  A 0.46 0.46 0.0 0 1 90.82 33.87
  L 96.43 12.69
  A 0.46 0.46 0.0 0 1 96.76 12.36
  Z"
/>
<path fill="#115a9f" d="
  M 92.92 14.71
  L 88.32 32.33
  Q 88.20 32.80 87.72 32.76
  Q 84.84 32.55 82.19 33.63
  Q 81.69 33.84 81.38 33.40
  L 74.03 23.27
  A 0.59 0.59 0.0 0 1 74.23 22.41
  Q 82.93 17.56 92.29 14.14
  Q 93.15 13.83 92.92 14.71
  Z"
/>
<path fill="#115a9f" d="
  M 310.10 61.69
  L 234.06 20.60
  A 0.74 0.74 0.0 0 1 234.42 19.21
  L 283.04 19.91
  Q 283.59 19.91 283.89 20.38
  L 310.40 61.36
  A 0.23 0.23 0.0 0 1 310.10 61.69
  Z"
/>
<path fill="#115a9f" d="
  M 219.28 24.97
  Q 219.85 25.60 220.16 26.77
  Q 220.45 27.88 220.28 30.33
  Q 216.67 82.76 213.24 135.27
  A 1.29 1.28 -55.3 0 1 210.79 135.72
  L 172.76 51.45
  Q 172.53 50.93 172.91 50.50
  Q 175.99 47.05 175.39 42.45
  Q 175.32 41.91 175.80 41.67
  Q 195.61 31.86 215.35 21.93
  Q 216.15 21.54 216.74 22.19
  L 219.28 24.97
  Z"
/>
<path fill="#115a9f" d="
  M 318.27 42.32
  C 317.69 47.68 317.95 53.32 317.71 58.75
  Q 317.69 59.19 317.28 59.36
  L 313.86 60.74
  Q 313.39 60.93 313.12 60.51
  L 288.38 22.67
  A 0.24 0.23 86.5 0 1 288.68 22.33
  Q 302.68 29.18 315.33 38.32
  C 316.95 39.49 318.53 39.90 318.27 42.32
  Z"
/>
<path fill="#115a9f" d="
  M 233.72 23.57
  L 309.84 64.78
  Q 310.41 65.09 310.25 65.72
  Q 309.52 68.58 310.26 71.46
  A 1.04 1.04 0.0 0 1 309.89 72.54
  L 281.82 93.89
  Q 281.31 94.27 280.84 93.85
  Q 276.47 89.91 270.76 91.96
  Q 270.20 92.16 269.89 91.65
  L 230.57 26.89
  A 2.37 2.37 0.0 0 1 233.72 23.57
  Z"
/>
<path fill="#115a9f" d="
  M 51.44 69.81
  Q 51.17 69.74 50.93 69.56
  Q 50.48 69.24 50.65 68.71
  L 63.09 30.00
  Q 63.27 29.45 63.75 29.13
  L 70.68 24.48
  A 0.64 0.64 0.0 0 1 71.56 24.64
  L 79.15 35.15
  A 0.80 0.80 0.0 0 1 79.15 36.09
  Q 75.41 41.22 78.35 46.88
  Q 78.62 47.40 78.19 47.79
  Q 65.92 58.76 53.79 69.78
  Q 52.49 70.97 51.44 69.81
  Z"
/>
<path fill="#115a9f" d="
  M 216.62 136.48
  A 1.27 1.27 0.0 0 1 216.06 135.34
  L 223.12 27.20
  Q 223.15 26.78 223.56 26.77
  L 226.55 26.69
  Q 227.19 26.68 227.51 27.22
  L 267.53 93.32
  Q 267.83 93.82 267.47 94.27
  Q 263.36 99.47 266.61 105.50
  Q 266.89 106.00 266.41 106.33
  L 220.94 137.95
  A 1.17 1.16 35.1 0 1 219.98 138.11
  Q 218.39 137.69 216.62 136.48
  Z"
/>
<path fill="#0d4376" d="
  M 487.32 86.23
  A 0.81 0.81 0.0 0 1 486.51 85.42
  C 486.49 77.15 487.63 66.61 485.15 58.58
  C 482.21 49.02 466.42 48.39 461.28 56.30
  Q 458.80 60.11 458.79 64.57
  Q 458.69 113.78 458.78 163.00
  C 458.81 182.06 486.25 181.88 486.47 163.30
  Q 486.63 149.89 486.44 136.58
  A 0.57 0.57 0.0 0 1 487.01 136.00
  L 511.49 136.00
  Q 511.97 136.00 511.97 136.49
  Q 512.04 147.90 512.04 159.24
  C 512.05 190.12 492.09 206.14 461.93 200.82
  C 440.15 196.98 431.80 179.85 431.78 159.43
  Q 431.71 112.85 431.89 66.26
  C 431.96 50.26 438.80 35.31 454.31 29.30
  C 464.29 25.44 478.10 25.58 488.04 28.79
  C 513.45 36.99 512.16 64.00 512.01 85.66
  A 0.61 0.60 -89.5 0 1 511.41 86.26
  L 487.32 86.23
  Z"
/>
<path fill="#0d4376" d="
  M 589.92 68.01
  C 589.94 36.59 613.38 21.43 642.81 27.69
  C 668.24 33.11 672.09 54.46 671.92 76.74
  C 671.69 106.20 672.22 135.02 671.74 162.00
  C 671.18 193.45 646.04 206.82 617.85 200.06
  C 598.46 195.41 590.35 179.13 590.22 160.43
  Q 589.90 114.23 589.92 68.01
  Z
  M 626.02 51.54
  C 618.08 53.38 616.97 62.39 616.97 69.00
  Q 616.97 115.47 617.03 161.94
  C 617.04 167.48 619.51 175.10 625.73 176.51
  C 642.24 180.27 644.89 169.69 644.93 156.55
  Q 645.09 111.99 644.86 67.44
  C 644.80 55.25 638.76 48.61 626.02 51.54
  Z"
/>
<path fill="#0d4376" d="
  M 780.00 130.51
  L 780.00 199.25
  A 0.50 0.50 0.0 0 1 779.50 199.75
  L 753.75 199.75
  A 0.75 0.75 0.0 0 1 753.00 199.00
  L 753.00 28.77
  A 0.51 0.51 0.0 0 1 753.51 28.26
  Q 772.75 28.23 792.25 28.24
  C 807.65 28.24 822.99 31.35 829.90 46.45
  C 835.07 57.74 834.49 77.73 833.00 90.76
  C 831.84 101.03 826.25 110.78 816.71 115.51
  A 0.45 0.45 0.0 0 0 816.73 116.33
  C 828.67 121.53 833.34 133.91 833.70 146.26
  Q 834.24 164.99 834.12 183.75
  Q 834.07 191.59 836.75 199.21
  A 0.41 0.40 80.3 0 1 836.37 199.75
  L 810.00 199.75
  Q 809.42 199.75 809.24 199.19
  Q 806.95 192.17 807.02 184.95
  Q 807.29 156.63 806.67 145.35
  C 805.78 129.02 792.87 130.05 780.51 130.00
  Q 780.00 130.00 780.00 130.51
  Z
  M 780.74 105.55
  C 792.96 105.30 806.21 106.99 806.61 89.81
  Q 806.90 77.40 806.62 68.44
  C 806.06 50.24 793.56 52.29 780.27 52.83
  A 0.28 0.28 0.0 0 0 780.00 53.11
  L 780.00 104.82
  Q 780.00 105.56 780.74 105.55
  Z"
/>
<path fill="#0d4376" d="
  M 942.83 175.25
  L 988.42 175.25
  A 0.58 0.58 0.0 0 1 989.00 175.83
  L 989.00 199.17
  A 0.58 0.58 0.0 0 1 988.42 199.75
  L 915.83 199.75
  A 0.58 0.58 0.0 0 1 915.25 199.17
  L 915.25 28.83
  A 0.58 0.58 0.0 0 1 915.83 28.25
  L 988.42 28.25
  A 0.58 0.58 0.0 0 1 989.00 28.83
  L 989.00 52.17
  A 0.58 0.58 0.0 0 1 988.42 52.75
  L 942.83 52.75
  A 0.58 0.58 0.0 0 0 942.25 53.33
  L 942.25 99.93
  A 0.58 0.58 0.0 0 0 942.83 100.51
  L 978.65 100.49
  A 0.58 0.58 0.0 0 1 979.23 101.07
  L 979.28 124.42
  A 0.58 0.58 0.0 0 1 978.70 125.00
  L 942.83 125.00
  A 0.58 0.58 0.0 0 0 942.25 125.58
  L 942.25 174.67
  A 0.58 0.58 0.0 0 0 942.83 175.25
  Z"
/>
<path fill="#115a9f" d="
  M 59.03 33.28
  L 47.96 67.77
  A 1.44 1.44 0.0 0 1 45.16 67.47
  L 43.12 47.41
  Q 43.06 46.79 43.52 46.37
  L 58.44 32.91
  A 0.36 0.36 0.0 0 1 59.03 33.28
  Z"
/>
<path fill="#115a9f" d="
  M 160.07 50.82
  Q 161.49 51.45 161.00 53.26
  Q 155.25 74.79 149.54 96.42
  Q 149.44 96.83 149.02 96.92
  L 144.30 98.01
  Q 143.76 98.13 143.37 97.74
  L 93.88 48.26
  Q 93.55 47.93 93.73 47.49
  L 95.54 43.24
  Q 95.74 42.77 96.24 42.80
  L 156.64 46.31
  Q 157.10 46.34 157.33 46.73
  L 159.29 50.13
  A 1.71 1.71 0.0 0 0 160.07 50.82
  Z"
/>
<path fill="#115a9f" d="
  M 320.56 58.85
  L 320.98 43.27
  Q 321.00 42.43 321.65 42.96
  Q 330.59 50.26 338.43 58.73
  A 0.55 0.55 0.0 0 1 338.28 59.59
  L 328.01 65.01
  A 0.42 0.42 0.0 0 1 327.44 64.82
  Q 325.43 60.80 321.07 59.55
  A 0.70 0.70 0.0 0 1 320.56 58.85
  Z"
/>
<path fill="#115a9f" d="
  M 84.60 51.19
  A 0.49 0.48 12.5 0 1 84.91 51.67
  L 81.81 102.03
  A 2.91 2.91 0.0 0 1 76.95 104.00
  L 54.46 83.48
  A 0.83 0.82 -53.6 0 1 54.31 82.45
  Q 56.92 78.07 54.71 73.39
  Q 54.45 72.85 54.90 72.44
  L 80.01 49.83
  A 0.78 0.77 34.7 0 1 80.83 49.69
  L 84.60 51.19
  Z"
/>
<path fill="#115a9f" d="
  M 92.66 50.77
  L 141.25 99.71
  Q 141.56 100.02 141.39 100.42
  L 139.27 105.28
  Q 139.09 105.70 138.63 105.73
  L 92.16 109.06
  A 0.95 0.95 0.0 0 1 91.26 108.59
  Q 89.16 105.02 85.07 103.98
  Q 84.52 103.84 84.56 103.28
  L 87.72 52.63
  A 2.89 2.89 0.0 0 1 92.66 50.77
  Z"
/>
<path fill="#115a9f" d="
  M 27.36 65.59
  L 39.70 50.37
  A 0.52 0.52 0.0 0 1 40.62 50.65
  L 42.41 68.88
  A 0.52 0.52 0.0 0 1 42.23 69.33
  L 38.57 72.38
  A 0.52 0.52 0.0 0 1 37.98 72.43
  L 27.51 66.36
  A 0.52 0.52 0.0 0 1 27.36 65.59
  Z"
/>
<path fill="#115a9f" d="
  M 164.04 52.97
  Q 166.67 53.67 169.23 52.79
  Q 170.19 52.46 170.60 53.38
  Q 189.43 95.27 208.43 136.89
  Q 208.65 137.36 208.44 137.89
  A 0.64 0.63 25.2 0 1 207.53 138.21
  L 157.94 109.95
  Q 157.40 109.64 157.52 109.04
  Q 158.98 101.57 152.61 97.91
  A 0.71 0.71 0.0 0 1 152.27 97.11
  L 163.88 53.07
  A 0.13 0.13 0.0 0 1 164.04 52.97
  Z"
/>
<path fill="#115a9f" d="
  M 327.46 72.75
  L 328.51 68.25
  Q 328.61 67.81 329.01 67.60
  L 340.39 61.75
  Q 340.86 61.51 341.21 61.90
  C 353.15 75.11 361.67 91.41 364.05 109.19
  A 0.32 0.31 -71.6 0 1 363.52 109.46
  L 327.68 73.53
  Q 327.36 73.20 327.46 72.75
  Z"
/>
<path fill="#115a9f" d="
  M 37.17 75.35
  L 37.61 80.65
  A 0.35 0.35 0.0 0 1 37.27 81.03
  L 17.95 81.72
  A 0.35 0.35 0.0 0 1 17.63 81.19
  L 25.19 68.64
  A 0.35 0.35 0.0 0 1 25.67 68.52
  L 36.99 75.08
  A 0.35 0.35 0.0 0 1 37.17 75.35
  Z"
/>
<path fill="#115a9f" d="
  M 281.30 106.60
  C 283.59 103.32 284.08 101.01 283.04 97.08
  Q 282.90 96.54 283.35 96.20
  L 311.54 74.76
  Q 311.93 74.46 312.28 74.80
  Q 314.26 76.73 316.94 77.43
  Q 317.63 77.61 317.59 78.33
  L 313.87 142.82
  A 0.48 0.47 -7.3 0 1 313.54 143.24
  L 309.36 144.53
  Q 308.81 144.70 308.47 144.25
  L 281.31 107.61
  Q 280.94 107.11 281.30 106.60
  Z"
/>
<path fill="#115a9f" d="
  M 330.83 80.47
  C 341.47 91.78 352.72 102.59 363.63 113.51
  A 0.71 0.70 -41.0 0 1 363.55 114.57
  L 321.77 145.76
  Q 321.34 146.08 320.88 145.82
  L 317.14 143.65
  Q 316.70 143.39 316.73 142.88
  L 320.42 78.22
  Q 320.44 77.92 320.71 77.79
  L 325.28 75.65
  A 0.68 0.68 0.0 0 1 326.01 75.76
  Q 328.54 78.03 330.83 80.47
  Z"
/>
<path fill="#115a9f" d="
  M 15.63 85.18
  A 1.09 1.09 0.0 0 1 16.54 84.60
  L 38.28 83.76
  A 0.28 0.28 0.0 0 1 38.47 84.26
  L 5.75 111.26
  A 0.30 0.30 0.0 0 1 5.27 110.94
  Q 9.33 97.62 15.63 85.18
  Z"
/>
<path fill="#115a9f" d="
  M 53.36 86.29
  L 75.66 106.48
  Q 76.11 106.88 75.78 107.39
  Q 72.07 113.10 75.86 118.58
  A 0.91 0.90 -42.6 0 1 75.81 119.65
  L 49.48 152.19
  A 1.86 1.86 0.0 0 1 46.17 150.96
  L 48.01 88.57
  A 3.20 3.20 0.0 0 1 53.36 86.29
  Z"
/>
<path fill="#115a9f" d="
  M 43.25 150.25
  Q 43.43 150.44 43.48 150.73
  Q 43.55 151.19 43.10 151.32
  L 38.64 152.61
  A 1.13 1.11 58.1 0 1 37.56 152.35
  L 4.29 121.21
  A 3.50 3.50 0.0 0 1 4.45 115.95
  L 40.33 86.31
  A 2.92 2.91 -19.1 0 1 45.10 88.62
  Q 44.44 118.69 43.25 150.25
  Z"
/>
<path fill="#115a9f" d="
  M 304.61 150.60
  L 223.96 144.41
  A 0.92 0.91 -6.1 0 1 223.16 143.77
  L 222.34 141.00
  Q 222.19 140.47 222.64 140.16
  L 268.40 108.32
  A 1.05 1.05 0.0 0 1 269.51 108.27
  Q 273.53 110.51 277.96 108.90
  Q 278.58 108.67 278.98 109.20
  L 306.67 146.55
  Q 306.89 146.84 306.74 147.16
  L 305.43 150.11
  Q 305.19 150.64 304.61 150.60
  Z"
/>
<path fill="#115a9f" d="
  M 88.02 120.66
  C 90.83 117.94 92.22 116.77 92.34 112.44
  Q 92.35 111.84 92.96 111.80
  L 139.06 108.51
  Q 139.71 108.47 139.92 109.07
  Q 141.32 113.12 145.24 114.83
  Q 145.81 115.07 145.64 115.67
  L 124.17 193.28
  A 2.44 2.44 0.0 0 1 119.59 193.62
  L 87.84 121.58
  A 0.82 0.82 0.0 0 1 88.02 120.66
  Z"
/>
<path fill="#115a9f" d="
  M 205.57 140.29
  A 0.51 0.50 26.0 0 1 205.79 140.91
  Q 204.39 144.48 205.34 148.24
  Q 205.49 148.84 204.97 149.16
  L 129.34 195.78
  A 1.61 1.61 0.0 0 1 126.94 193.98
  L 148.50 116.12
  Q 148.65 115.57 149.22 115.52
  Q 152.90 115.17 155.45 112.53
  A 0.85 0.85 0.0 0 1 156.48 112.39
  L 205.57 140.29
  Z"
/>
<path fill="#115a9f" d="
  M 363.00 118.18
  Q 363.04 117.94 363.45 118.02
  A 0.50 0.49 9.3 0 1 363.85 118.57
  Q 362.02 133.75 351.59 144.84
  Q 351.27 145.18 350.81 145.26
  L 323.92 150.04
  A 1.03 1.03 0.0 0 1 323.12 148.20
  L 362.80 118.52
  Q 362.97 118.39 363.00 118.18
  Z"
/>
<path fill="#115a9f" d="
  M 79.03 121.07
  C 81.15 121.78 82.11 122.03 84.40 122.00
  Q 84.94 121.99 85.17 122.49
  L 117.36 195.37
  A 1.70 1.70 0.0 0 1 114.99 197.55
  L 52.60 163.60
  Q 52.11 163.33 52.20 162.78
  Q 52.81 158.96 50.70 155.80
  A 0.82 0.82 0.0 0 1 50.75 154.82
  L 77.99 121.37
  A 0.96 0.95 -60.8 0 1 79.03 121.07
  Z"
/>
<path fill="#115a9f" d="
  M 2.74 123.67
  L 35.33 154.01
  A 1.71 1.71 0.0 0 1 33.52 156.84
  L 0.62 143.27
  A 0.83 0.81 14.7 0 1 0.11 142.42
  L 2.17 123.88
  A 0.34 0.34 0.0 0 1 2.74 123.67
  Z"
/>
<path fill="#115a9f" d="
  M 0.00 156.93
  L 0.00 146.09
  L 33.32 159.78
  A 1.30 1.29 -37.9 0 1 33.01 162.26
  L 1.27 166.72
  Q 0.78 166.79 0.74 166.29
  L 0.00 156.93
  Z"
/>
<path fill="#115a9f" d="
  M 223.82 147.21
  L 303.77 153.37
  A 2.22 2.22 0.0 0 1 304.73 157.49
  L 266.70 180.01
  A 1.11 1.10 -42.4 0 1 265.48 179.96
  L 223.03 149.39
  A 1.21 1.20 65.0 0 1 223.82 147.21
  Z"
/>
<path fill="#115a9f" d="
  M 323.54 153.50
  Q 323.67 152.92 324.25 152.82
  L 347.02 148.83
  Q 347.78 148.70 347.21 149.22
  Q 334.52 160.78 318.25 166.32
  Q 317.71 166.51 317.55 165.96
  L 316.44 162.10
  Q 316.30 161.64 316.75 161.46
  Q 322.27 159.29 323.54 153.50
  Z"
/>
<path fill="#115a9f" d="
  M 208.07 152.29
  Q 208.50 152.49 208.81 152.92
  Q 209.12 153.35 208.94 153.85
  L 185.77 217.55
  A 1.30 1.28 0.4 0 1 184.98 218.32
  L 175.76 221.41
  Q 175.21 221.60 174.67 221.39
  Q 153.83 213.48 132.95 205.65
  Q 132.44 205.46 132.48 204.91
  Q 132.76 201.58 130.98 198.75
  Q 130.66 198.23 131.18 197.90
  L 206.41 151.46
  Q 206.82 151.20 207.17 151.55
  L 207.54 151.92
  Q 207.77 152.15 208.07 152.29
  Z"
/>
<path fill="#115a9f" d="
  M 221.83 151.90
  L 263.52 181.90
  A 0.29 0.29 0.0 0 1 263.40 182.42
  Q 249.36 184.75 236.14 189.99
  A 0.64 0.63 67.0 0 1 235.33 189.66
  L 219.56 153.73
  A 1.51 1.51 0.0 0 1 221.83 151.90
  Z"
/>
<path fill="#115a9f" d="
  M 211.39 155.17
  Q 211.54 154.74 211.92 154.43
  A 0.94 0.94 0.0 0 1 213.44 155.05
  Q 216.14 176.90 218.74 199.00
  C 219.21 203.01 193.81 214.87 189.69 216.50
  A 0.29 0.28 -0.8 0 1 189.31 216.14
  Q 200.31 185.70 211.39 155.17
  Z"
/>
<path fill="#115a9f" d="
  M 221.43 197.67
  L 216.23 154.72
  A 0.33 0.33 0.0 0 1 216.86 154.55
  L 232.81 191.04
  A 0.33 0.33 0.0 0 1 232.68 191.46
  L 221.93 197.91
  A 0.33 0.33 0.0 0 1 221.43 197.67
  Z"
/>
<path fill="#115a9f" d="
  M 313.41 162.07
  L 314.88 167.05
  A 0.63 0.63 0.0 0 1 314.51 167.81
  Q 293.63 176.04 271.65 180.63
  A 0.16 0.16 0.0 0 1 271.54 180.34
  L 307.11 159.32
  A 1.02 1.02 0.0 0 1 308.35 159.48
  Q 310.14 161.29 312.76 161.54
  A 0.76 0.76 0.0 0 1 313.41 162.07
  Z"
/>
<path fill="#115a9f" d="
  M 35.56 167.93
  L 6.88 198.04
  A 0.33 0.33 0.0 0 1 6.32 197.89
  Q 2.91 184.04 1.03 169.90
  A 0.41 0.40 -8.4 0 1 1.38 169.44
  L 34.01 164.91
  A 1.80 1.80 0.0 0 1 35.56 167.93
  Z"
/>
<path fill="#115a9f" d="
  M 114.29 200.36
  A 0.28 0.27 18.0 0 1 114.43 200.63
  L 113.89 204.69
  A 0.94 0.92 -5.9 0 1 113.28 205.43
  L 46.24 228.07
  A 0.42 0.41 63.8 0 1 45.75 227.90
  Q 43.87 225.00 40.68 223.67
  A 0.73 0.71 -77.6 0 1 40.24 222.96
  L 44.24 170.44
  Q 44.29 169.78 44.94 169.65
  Q 48.46 168.97 50.59 166.13
  Q 50.96 165.64 51.50 165.93
  L 114.29 200.36
  Z"
/>
<path fill="#115a9f" d="
  M 8.81 200.12
  L 37.66 169.74
  A 2.22 2.22 0.0 0 1 41.48 171.44
  L 37.43 222.56
  A 0.74 0.73 88.1 0 1 36.80 223.24
  Q 34.12 223.61 31.97 225.26
  A 0.67 0.66 -42.8 0 1 31.12 225.23
  L 9.06 205.75
  A 3.92 3.91 42.5 0 1 8.81 200.12
  Z"
/>
<path fill="#115a9f" d="
  M 115.12 208.32
  L 118.18 211.73
  Q 118.46 212.04 118.34 212.44
  L 107.87 249.05
  Q 107.68 249.72 106.98 249.74
  Q 103.37 249.81 100.73 252.26
  Q 100.36 252.61 99.87 252.44
  L 48.22 235.07
  A 2.42 2.42 0.0 0 1 48.21 230.49
  L 114.25 208.09
  Q 114.76 207.92 115.12 208.32
  Z"
/>
<path fill="#115a9f" d="
  M 169.81 222.66
  A 0.32 0.31 47.9 0 1 169.78 223.26
  Q 158.43 226.21 146.81 227.70
  A 0.67 0.67 0.0 0 1 146.22 227.46
  L 131.21 209.47
  A 0.75 0.75 0.0 0 1 132.05 208.29
  L 169.81 222.66
  Z"
/>
<path fill="#115a9f" d="
  M 11.75 211.80
  L 29.25 227.32
  A 1.45 1.45 0.0 0 1 28.18 229.85
  L 20.28 229.22
  Q 19.66 229.18 19.34 228.65
  Q 14.58 220.77 11.17 212.21
  Q 10.60 210.78 11.75 211.80
  Z"
/>
<path fill="#115a9f" d="
  M 122.81 212.91
  Q 125.64 212.72 128.42 211.53
  Q 129.02 211.27 129.44 211.77
  L 143.94 228.84
  Q 144.34 229.30 143.84 229.65
  L 113.35 251.09
  A 1.67 1.67 0.0 0 1 110.78 249.27
  L 120.90 213.26
  Q 121.06 212.68 121.66 212.72
  Q 121.86 212.73 122.04 212.80
  Q 122.41 212.94 122.81 212.91
  Z"
/>
<path fill="#115a9f" d="
  M 37.21 242.32
  L 38.24 247.74
  A 0.28 0.28 0.0 0 1 37.80 248.01
  Q 29.07 241.54 22.43 232.95
  Q 21.89 232.25 22.77 232.30
  L 27.97 232.63
  A 0.69 0.69 0.0 0 1 28.61 233.18
  Q 29.99 239.77 36.49 241.55
  Q 37.09 241.71 37.21 242.32
  Z"
/>
<path fill="#115a9f" d="
  M 116.51 259.41
  A 0.79 0.78 -78.4 0 1 116.00 258.63
  Q 116.14 256.22 114.78 254.27
  Q 114.38 253.71 114.94 253.31
  L 142.38 233.86
  A 0.26 0.26 0.0 0 1 142.77 234.17
  Q 136.70 249.17 133.37 265.00
  A 0.62 0.61 -73.5 0 1 132.55 265.45
  L 116.51 259.41
  Z"
/>
<path fill="#0d4376" d="
  M 443.76 289.25
  C 443.78 295.08 451.53 296.80 454.06 292.43
  C 455.70 289.60 455.02 282.52 454.99 278.87
  A 0.66 0.66 0.0 0 1 455.65 278.21
  L 464.84 278.21
  A 0.46 0.45 -90.0 0 1 465.29 278.67
  C 465.27 286.03 466.44 294.98 460.77 300.52
  C 454.43 306.70 441.71 306.18 436.07 299.16
  Q 432.83 295.12 432.78 287.69
  Q 432.68 270.97 432.72 254.25
  C 432.73 248.22 433.20 241.66 438.00 237.42
  C 443.63 232.44 454.52 232.71 460.16 237.34
  C 465.71 241.89 465.55 250.29 465.21 257.51
  Q 465.19 258.00 464.70 258.00
  L 455.52 258.00
  A 0.55 0.54 -89.5 0 1 454.98 257.44
  C 455.05 254.52 455.62 248.29 453.96 245.87
  C 451.86 242.79 446.36 243.11 444.67 246.12
  Q 443.78 247.69 443.77 251.66
  Q 443.72 270.45 443.76 289.25
  Z"
/>
<path fill="#0d4376" d="
  M 529.95 289.55
  A 15.14 15.14 0.0 0 1 514.81 304.69
  L 512.17 304.69
  A 15.14 15.14 0.0 0 1 497.03 289.55
  L 497.03 248.93
  A 15.14 15.14 0.0 0 1 512.17 233.79
  L 514.81 233.79
  A 15.14 15.14 0.0 0 1 529.95 248.93
  L 529.95 289.55
  Z
  M 519.21 249.21
  A 5.47 5.47 0.0 0 0 513.74 243.74
  L 513.24 243.74
  A 5.47 5.47 0.0 0 0 507.77 249.21
  L 507.77 289.31
  A 5.47 5.47 0.0 0 0 513.24 294.78
  L 513.74 294.78
  A 5.47 5.47 0.0 0 0 519.21 289.31
  L 519.21 249.21
  Z"
/>
<path fill="#0d4376" d="
  M 572.85 257.48
  A 0.30 0.30 0.0 0 0 572.25 257.53
  L 572.25 303.38
  Q 572.25 304.00 571.63 304.00
  L 563.37 304.00
  Q 562.75 304.00 562.75 303.37
  L 562.75 235.12
  Q 562.75 234.50 563.38 234.50
  L 577.76 234.50
  Q 578.02 234.50 578.06 234.76
  L 585.85 282.93
  A 0.16 0.16 0.0 0 0 586.17 282.93
  L 593.44 234.96
  A 0.54 0.54 0.0 0 1 593.97 234.50
  L 608.12 234.50
  Q 608.75 234.50 608.75 235.13
  L 608.75 303.25
  A 0.75 0.75 0.0 0 1 608.00 304.00
  L 598.80 304.00
  Q 598.29 304.00 598.28 303.48
  Q 598.11 285.85 598.50 258.01
  Q 598.51 257.65 598.21 257.59
  Q 597.80 257.52 597.73 257.94
  L 590.89 303.37
  A 0.72 0.72 0.0 0 1 590.19 303.98
  L 581.09 304.01
  Q 580.50 304.01 580.40 303.43
  Q 576.57 280.47 572.85 257.48
  Z"
/>
<path fill="#0d4376" d="
  M 668.81 237.44
  C 676.10 242.56 675.64 258.30 674.27 265.53
  Q 672.02 277.35 659.75 277.57
  Q 656.80 277.62 653.86 277.83
  Q 653.25 277.87 653.25 278.48
  L 653.25 303.50
  A 0.50 0.50 0.0 0 1 652.75 304.00
  L 643.02 304.00
  A 0.73 0.72 0.4 0 1 642.29 303.27
  L 642.39 235.24
  A 0.67 0.67 0.0 0 1 643.04 234.57
  C 650.33 234.38 662.66 233.11 668.81 237.44
  Z
  M 653.17 245.21
  L 653.13 267.29
  A 0.74 0.74 0.0 0 0 653.87 268.03
  L 658.79 268.04
  A 5.29 5.00 -89.9 0 0 663.80 262.76
  L 663.82 249.78
  A 5.29 5.00 -89.9 0 0 658.83 244.48
  L 653.91 244.47
  A 0.74 0.74 0.0 0 0 653.17 245.21
  Z"
/>
<path fill="#0d4376" d="
  M 716.50 274.11
  L 716.50 293.64
  A 0.36 0.36 0.0 0 0 716.86 294.00
  L 734.89 294.00
  A 0.36 0.36 0.0 0 1 735.25 294.36
  L 735.25 303.64
  A 0.36 0.36 0.0 0 1 734.89 304.00
  L 705.86 304.00
  A 0.36 0.36 0.0 0 1 705.50 303.64
  L 705.50 234.86
  A 0.36 0.36 0.0 0 1 705.86 234.50
  L 734.89 234.50
  A 0.36 0.36 0.0 0 1 735.25 234.86
  L 735.25 244.14
  A 0.36 0.36 0.0 0 1 734.89 244.50
  L 716.86 244.50
  A 0.36 0.36 0.0 0 0 716.50 244.86
  L 716.50 263.39
  A 0.36 0.36 0.0 0 0 716.86 263.75
  L 731.14 263.75
  A 0.36 0.36 0.0 0 1 731.50 264.11
  L 731.50 273.39
  A 0.36 0.36 0.0 0 1 731.14 273.75
  L 716.86 273.75
  A 0.36 0.36 0.0 0 0 716.50 274.11
  Z"
/>
<path fill="#0d4376" d="
  M 775.34 244.50
  L 765.43 244.50
  A 0.68 0.68 0.0 0 1 764.75 243.82
  L 764.75 235.18
  A 0.68 0.68 0.0 0 1 765.43 234.50
  L 797.83 234.50
  A 0.68 0.68 0.0 0 1 798.51 235.18
  L 798.47 243.85
  A 0.68 0.68 0.0 0 1 797.79 244.52
  L 787.69 244.45
  A 0.68 0.68 0.0 0 0 787.00 245.13
  L 787.00 303.30
  A 0.68 0.68 0.0 0 1 786.32 303.98
  L 776.67 304.01
  A 0.68 0.68 0.0 0 1 775.99 303.33
  L 776.02 245.18
  A 0.68 0.68 0.0 0 0 775.34 244.50
  Z"
/>
<path fill="#0d4376" d="
  M 840.49 294.00
  L 858.24 294.00
  A 0.51 0.51 0.0 0 1 858.75 294.51
  L 858.75 303.49
  A 0.51 0.51 0.0 0 1 858.24 304.00
  L 829.51 304.00
  A 0.51 0.51 0.0 0 1 829.00 303.49
  L 829.00 235.01
  A 0.51 0.51 0.0 0 1 829.51 234.50
  L 858.24 234.50
  A 0.51 0.51 0.0 0 1 858.75 235.01
  L 858.74 243.99
  A 0.51 0.51 0.0 0 1 858.23 244.50
  L 840.53 244.50
  A 0.51 0.51 0.0 0 0 840.02 245.01
  L 839.96 263.24
  A 0.51 0.51 0.0 0 0 840.47 263.75
  L 854.46 263.75
  A 0.51 0.51 0.0 0 1 854.97 264.26
  L 855.01 273.24
  A 0.51 0.51 0.0 0 1 854.50 273.75
  L 840.50 273.75
  A 0.51 0.51 0.0 0 0 839.99 274.26
  L 839.98 293.49
  A 0.51 0.51 0.0 0 0 840.49 294.00
  Z"
/>
<path fill="#0d4376" d="
  M 915.99 274.54
  L 916.01 236.03
  Q 916.01 234.59 917.45 234.57
  L 925.10 234.47
  Q 925.75 234.46 925.75 235.11
  L 925.75 303.37
  Q 925.75 304.00 925.13 304.00
  L 915.29 304.00
  A 0.87 0.87 0.0 0 1 914.45 303.35
  L 901.92 257.08
  Q 901.00 253.67 901.00 257.20
  L 901.00 303.39
  Q 901.00 303.97 900.42 303.98
  L 891.88 304.01
  Q 891.25 304.01 891.25 303.38
  L 891.25 235.10
  Q 891.25 234.51 891.84 234.51
  L 904.38 234.51
  Q 904.90 234.51 905.03 235.01
  L 915.64 274.59
  A 0.18 0.18 0.0 0 0 915.99 274.54
  Z"
/>
<path fill="#0d4376" d="
  M 990.00 234.64
  L 990.00 244.40
  L 979.00 244.50
  Q 978.50 244.50 978.50 245.01
  L 978.51 303.59
  A 0.41 0.40 0.0 0 1 978.10 303.99
  L 968.38 304.00
  Q 967.75 304.00 967.75 303.38
  L 967.75 245.00
  A 0.50 0.50 0.0 0 0 967.25 244.50
  L 956.86 244.50
  Q 956.28 244.50 956.27 243.92
  L 956.24 235.26
  Q 956.24 234.57 956.92 234.58
  L 990.00 234.64
  Z"
/>
<path fill="#115a9f" d="
  M 97.65 254.60
  Q 98.16 254.77 98.11 255.30
  L 97.61 260.67
  Q 97.56 261.21 97.04 261.37
  Q 84.37 265.49 71.67 269.49
  A 1.56 1.55 -28.4 0 1 69.98 268.99
  L 45.27 238.61
  A 0.81 0.80 -49.0 0 1 45.21 237.68
  Q 45.57 237.06 46.46 237.36
  Q 71.71 245.75 97.65 254.60
  Z"
/>
<path fill="#115a9f" d="
  M 42.18 251.44
  A 1.69 1.69 0.0 0 1 41.51 250.37
  L 40.17 242.55
  A 1.89 1.88 -69.4 0 1 43.49 241.04
  L 62.43 264.30
  Q 63.30 265.36 62.12 264.65
  Q 51.85 258.49 42.18 251.44
  Z"
/>
<path fill="#115a9f" d="
  M 112.90 265.93
  L 115.48 262.59
  Q 115.78 262.20 116.24 262.38
  L 132.05 268.43
  A 0.61 0.59 14.1 0 1 132.43 269.05
  C 130.74 284.65 130.58 295.66 130.68 309.22
  Q 130.69 310.44 130.22 309.32
  L 112.69 267.58
  Q 112.32 266.69 112.90 265.93
  Z"
/>
<path fill="#115a9f" d="
  M 75.16 272.06
  A 0.38 0.38 0.0 0 1 75.21 271.36
  L 98.33 263.83
  Q 98.93 263.64 99.27 264.16
  Q 100.94 266.75 103.89 267.60
  Q 104.51 267.77 104.40 268.41
  L 101.81 284.20
  A 0.55 0.55 0.0 0 1 101.02 284.61
  L 75.16 272.06
  Z"
/>
<path fill="#115a9f" d="
  M 107.17 268.66
  A 0.48 0.47 80.6 0 1 107.40 268.33
  C 108.73 267.49 109.66 267.92 110.24 269.30
  Q 120.37 293.30 130.67 317.18
  Q 130.87 317.66 130.44 317.92
  L 110.83 329.77
  A 0.28 0.28 0.0 0 1 110.41 329.58
  Q 107.41 310.19 104.56 290.70
  C 103.59 284.07 106.01 275.36 107.17 268.66
  Z"
/>
</svg>
